<svg width="332" height="270" viewBox="0 0 332 270" fill="none" xmlns="http://www.w3.org/2000/svg">
<path d="M32.2559 170.53L113.527 57.3928H12L28.5506 7.24702L215.301 7L97.9643 170.283L32.2559 170.53Z" fill="black"/>
<path d="M131.559 170.53L212.83 57.3928H111.304L127.854 7.24702L314.604 7L197.268 170.283L131.559 170.53Z" fill="white"/>
<path d="M29.7481 168.728L26.2196 173.64L32.2676 173.617L97.9759 173.37L99.552 173.365L100.472 172.085L180.671 60.4806H206.81L129.052 168.728L125.523 173.64L131.571 173.617L197.279 173.37L198.856 173.365L199.775 172.085L317.112 8.80191L320.631 3.90423L314.6 3.91221L221.233 4.03571L221.328 3.90423L215.296 3.91221L28.5465 4.15923L26.3171 4.16218L25.6184 6.27924L9.06778 56.4251L7.72924 60.4806H12H107.033H107.507L29.7481 168.728Z" stroke="black" stroke-width="6.17559"/>
<mask id="path-3-outside-1_478_2349" maskUnits="userSpaceOnUse" x="0" y="203.853" width="332" height="66" fill="black">
<rect fill="white" y="203.853" width="332" height="66"/>
<path d="M47.0161 260.641L37.0422 247.439H32.3782L27.9294 260.641L12 260.57L21.2563 232.298H49.1687L50.7473 227.563H22.8349L27.2837 213.212L62.4432 213.14C65.2177 213.14 67.2268 213.403 68.4706 213.929C69.4751 214.216 69.9774 215.077 69.9774 216.512C69.9774 217.326 69.7143 218.665 69.1881 220.531L61.4386 244.281L56.5594 248.156L66.6767 260.354L47.0161 260.641Z"/>
<path d="M110.39 260.641L68.1981 260.211L77.4544 232.298H119.646L116.13 242.99H89.9396L88.2176 247.941L114.48 248.013L110.39 260.641ZM121.009 227.634L78.9613 227.491L80.8268 221.607C81.8792 218.641 82.836 216.68 83.697 215.723C84.6059 214.766 85.2278 214.312 85.5627 214.36C87.0456 213.547 89.9875 213.068 94.3884 212.925L125.817 212.853L121.009 227.634Z"/>
<path d="M130.517 260.857H114.516L123.772 232.514H152.689L154.268 227.706L125.566 227.634L130.374 212.925H164.313C166.705 212.973 168.284 213.092 169.049 213.284C170.963 213.714 172.063 214.24 172.35 214.862C172.924 215.675 173.187 216.68 173.139 217.876C173.139 218.737 172.804 220.387 172.135 222.827L168.045 235.312C166.705 240 164.72 242.607 162.089 243.133C161.324 243.372 160.104 243.468 158.43 243.42C157.712 243.42 156.803 243.372 155.703 243.277L136.329 243.205L130.517 260.857Z"/>
<path d="M209.58 260.713L180.018 260.283C177.578 260.187 175.688 259.852 174.349 259.278C170.809 257.412 169.039 254.518 169.039 250.596C169.039 249.974 169.159 249.089 169.398 247.941C169.637 246.793 170.259 244.592 171.263 241.339C172.507 237.178 175.545 227.706 180.376 212.925H198.602L214.388 213.068C216.11 213.116 217.641 213.355 218.98 213.786C220.367 214.216 221.372 215.053 221.994 216.297C222.042 216.441 222.089 216.776 222.137 217.302C222.185 217.78 222.233 218.498 222.281 219.454C222.281 220.268 221.994 221.679 221.42 223.688C220.894 225.697 220.104 228.328 219.052 231.581L209.58 260.713ZM185.112 248.156L197.382 248.084L204.342 227.634H191.857C189.991 233.375 187.743 240.215 185.112 248.156Z"/>
<path d="M249.455 260.641L239.482 247.439H234.818L230.369 260.641L214.439 260.57L223.696 232.298H251.608L253.187 227.563H225.274L229.723 213.212L264.883 213.14C267.657 213.14 269.666 213.403 270.91 213.929C271.914 214.216 272.417 215.077 272.417 216.512C272.417 217.326 272.154 218.665 271.627 220.531L263.878 244.281L258.999 248.156L269.116 260.354L249.455 260.641Z"/>
<path d="M293.298 261L276.938 260.928L287.629 227.85L274.211 227.778C275.79 222.325 277.01 218.737 277.871 217.015C278.636 215.293 279.856 214.216 281.53 213.786C282.343 213.499 283.683 213.331 285.548 213.284L320.78 213.14C319.01 219.072 317.599 222.994 316.546 224.908C315.494 226.821 313.604 227.802 310.878 227.85H303.989L293.298 261Z"/>
</mask>
<path d="M47.0161 260.641L37.0422 247.439H32.3782L27.9294 260.641L12 260.57L21.2563 232.298H49.1687L50.7473 227.563H22.8349L27.2837 213.212L62.4432 213.14C65.2177 213.14 67.2268 213.403 68.4706 213.929C69.4751 214.216 69.9774 215.077 69.9774 216.512C69.9774 217.326 69.7143 218.665 69.1881 220.531L61.4386 244.281L56.5594 248.156L66.6767 260.354L47.0161 260.641Z" fill="black"/>
<path d="M110.39 260.641L68.1981 260.211L77.4544 232.298H119.646L116.13 242.99H89.9396L88.2176 247.941L114.48 248.013L110.39 260.641ZM121.009 227.634L78.9613 227.491L80.8268 221.607C81.8792 218.641 82.836 216.68 83.697 215.723C84.6059 214.766 85.2278 214.312 85.5627 214.36C87.0456 213.547 89.9875 213.068 94.3884 212.925L125.817 212.853L121.009 227.634Z" fill="black"/>
<path d="M130.517 260.857H114.516L123.772 232.514H152.689L154.268 227.706L125.566 227.634L130.374 212.925H164.313C166.705 212.973 168.284 213.092 169.049 213.284C170.963 213.714 172.063 214.24 172.35 214.862C172.924 215.675 173.187 216.68 173.139 217.876C173.139 218.737 172.804 220.387 172.135 222.827L168.045 235.312C166.705 240 164.72 242.607 162.089 243.133C161.324 243.372 160.104 243.468 158.43 243.42C157.712 243.42 156.803 243.372 155.703 243.277L136.329 243.205L130.517 260.857Z" fill="black"/>
<path d="M209.58 260.713L180.018 260.283C177.578 260.187 175.688 259.852 174.349 259.278C170.809 257.412 169.039 254.518 169.039 250.596C169.039 249.974 169.159 249.089 169.398 247.941C169.637 246.793 170.259 244.592 171.263 241.339C172.507 237.178 175.545 227.706 180.376 212.925H198.602L214.388 213.068C216.11 213.116 217.641 213.355 218.98 213.786C220.367 214.216 221.372 215.053 221.994 216.297C222.042 216.441 222.089 216.776 222.137 217.302C222.185 217.78 222.233 218.498 222.281 219.454C222.281 220.268 221.994 221.679 221.42 223.688C220.894 225.697 220.104 228.328 219.052 231.581L209.58 260.713ZM185.112 248.156L197.382 248.084L204.342 227.634H191.857C189.991 233.375 187.743 240.215 185.112 248.156Z" fill="black"/>
<path d="M249.455 260.641L239.482 247.439H234.818L230.369 260.641L214.439 260.57L223.696 232.298H251.608L253.187 227.563H225.274L229.723 213.212L264.883 213.14C267.657 213.14 269.666 213.403 270.91 213.929C271.914 214.216 272.417 215.077 272.417 216.512C272.417 217.326 272.154 218.665 271.627 220.531L263.878 244.281L258.999 248.156L269.116 260.354L249.455 260.641Z" fill="black"/>
<path d="M293.298 261L276.938 260.928L287.629 227.85L274.211 227.778C275.79 222.325 277.01 218.737 277.871 217.015C278.636 215.293 279.856 214.216 281.53 213.786C282.343 213.499 283.683 213.331 285.548 213.284L320.78 213.14C319.01 219.072 317.599 222.994 316.546 224.908C315.494 226.821 313.604 227.802 310.878 227.85H303.989L293.298 261Z" fill="black"/>
<path d="M47.0161 260.641L40.4459 265.605L42.9622 268.936L47.1363 268.875L47.0161 260.641ZM37.0422 247.439L43.6124 242.475L41.1415 239.204H37.0422V247.439ZM32.3782 247.439V239.204H26.4637L24.5751 244.809L32.3782 247.439ZM27.9294 260.641L27.8924 268.875L33.8349 268.902L35.7325 263.271L27.9294 260.641ZM12 260.57L4.17463 258.007L0.656523 268.753L11.9629 268.804L12 260.57ZM21.2563 232.298V224.064H15.288L13.4309 229.736L21.2563 232.298ZM49.1687 232.298V240.533H55.1035L56.9803 234.902L49.1687 232.298ZM50.7473 227.563L58.5589 230.167L62.1715 219.329H50.7473V227.563ZM22.8349 227.563L14.97 225.125L11.6616 235.797H22.8349V227.563ZM27.2837 213.212L27.2668 204.978L21.2117 204.99L19.4188 210.774L27.2837 213.212ZM62.4432 213.14V204.906H62.4348L62.4264 204.906L62.4432 213.14ZM68.4706 213.929L65.2622 221.513L65.7251 221.709L66.2084 221.847L68.4706 213.929ZM69.1881 220.531L77.0161 223.085L77.0678 222.926L77.113 222.766L69.1881 220.531ZM61.4386 244.281L66.5593 250.73L68.4985 249.19L69.2666 246.836L61.4386 244.281ZM56.5594 248.156L51.4387 241.708L44.8518 246.939L50.2215 253.413L56.5594 248.156ZM66.6767 260.354L66.7969 268.588L83.995 268.337L73.0145 255.098L66.6767 260.354ZM110.39 260.641L110.306 268.875L116.358 268.937L118.223 263.178L110.39 260.641ZM68.1981 260.211L60.3825 257.619L56.8308 268.329L68.1141 268.445L68.1981 260.211ZM77.4544 232.298V224.064H71.5099L69.6388 229.707L77.4544 232.298ZM119.646 232.298L127.468 234.871L131.022 224.064H119.646V232.298ZM116.13 242.99V251.224H122.09L123.952 245.562L116.13 242.99ZM89.9396 242.99V234.756H84.0857L82.1625 240.285L89.9396 242.99ZM88.2176 247.941L80.4404 245.236L76.6465 256.143L88.1951 256.175L88.2176 247.941ZM114.48 248.013L122.313 250.55L125.792 239.809L114.502 239.778L114.48 248.013ZM121.009 227.634L120.981 235.868L126.983 235.889L128.84 230.181L121.009 227.634ZM78.9613 227.491L71.1122 225.002L67.7245 235.687L78.9332 235.725L78.9613 227.491ZM80.8268 221.607L73.0668 218.853L73.0201 218.985L72.9778 219.118L80.8268 221.607ZM83.697 215.723L77.7273 210.052L77.6509 210.132L77.5767 210.215L83.697 215.723ZM85.5627 214.36L84.3981 222.511L87.1153 222.899L89.5219 221.58L85.5627 214.36ZM94.3884 212.925L94.3696 204.691L94.2448 204.691L94.1201 204.695L94.3884 212.925ZM125.817 212.853L133.647 215.4L137.162 204.593L125.798 204.619L125.817 212.853ZM130.517 260.857V269.091H136.475L138.338 263.432L130.517 260.857ZM114.516 260.857L106.689 258.3L103.165 269.091H114.516V260.857ZM123.772 232.514V224.28H117.799L115.945 229.957L123.772 232.514ZM152.689 232.514V240.748H158.652L160.512 235.082L152.689 232.514ZM154.268 227.706L162.091 230.275L165.629 219.5L154.288 219.472L154.268 227.706ZM125.566 227.634L117.739 225.076L114.222 235.84L125.546 235.868L125.566 227.634ZM130.374 212.925V204.691H124.402L122.547 210.367L130.374 212.925ZM164.313 212.925L164.478 204.692L164.396 204.691H164.313V212.925ZM169.049 213.284L167.052 221.272L167.147 221.295L167.242 221.317L169.049 213.284ZM172.35 214.862L164.874 218.313L165.189 218.996L165.623 219.611L172.35 214.862ZM173.139 217.876L164.912 217.547L164.905 217.711V217.876H173.139ZM172.135 222.827L179.96 225.39L180.022 225.2L180.075 225.007L172.135 222.827ZM168.045 235.312L160.22 232.749L160.171 232.899L160.127 233.05L168.045 235.312ZM162.089 243.133L160.474 235.059L160.048 235.144L159.633 235.274L162.089 243.133ZM158.43 243.42L158.665 235.19L158.547 235.186H158.43V243.42ZM155.703 243.277L156.416 235.074L156.075 235.044L155.733 235.043L155.703 243.277ZM136.329 243.205L136.36 234.971L130.379 234.949L128.508 240.63L136.329 243.205ZM209.58 260.713L209.46 268.946L215.533 269.035L217.411 263.259L209.58 260.713ZM180.018 260.283L179.695 268.51L179.796 268.514L179.898 268.516L180.018 260.283ZM174.349 259.278L170.51 266.562L170.802 266.716L171.105 266.846L174.349 259.278ZM169.398 247.941L177.459 249.62L177.459 249.62L169.398 247.941ZM171.263 241.339L179.131 243.769L179.142 243.733L179.153 243.697L171.263 241.339ZM180.376 212.925V204.691H174.405L172.55 210.367L180.376 212.925ZM198.602 212.925L198.677 204.691L198.639 204.691H198.602V212.925ZM214.388 213.068L214.616 204.837L214.54 204.835L214.463 204.835L214.388 213.068ZM218.98 213.786L216.46 221.625L216.5 221.638L216.539 221.65L218.98 213.786ZM221.994 216.297L229.805 213.693L229.62 213.138L229.359 212.615L221.994 216.297ZM222.137 217.302L213.937 218.047L213.94 218.084L213.944 218.121L222.137 217.302ZM222.281 219.454H230.515V219.249L230.505 219.043L222.281 219.454ZM221.42 223.688L213.502 221.426L213.477 221.514L213.454 221.602L221.42 223.688ZM219.052 231.581L226.882 234.127L226.886 234.116L219.052 231.581ZM185.112 248.156L177.296 245.566L173.687 256.457L185.16 256.39L185.112 248.156ZM197.382 248.084L197.43 256.318L203.289 256.284L205.177 250.737L197.382 248.084ZM204.342 227.634L212.137 230.287L215.843 219.4H204.342V227.634ZM191.857 227.634V219.4H185.875L184.026 225.089L191.857 227.634ZM249.455 260.641L242.885 265.605L245.402 268.936L249.576 268.875L249.455 260.641ZM239.482 247.439L246.052 242.475L243.581 239.204H239.482V247.439ZM234.818 247.439V239.204H228.903L227.014 244.809L234.818 247.439ZM230.369 260.641L230.332 268.875L236.274 268.902L238.172 263.271L230.369 260.641ZM214.439 260.57L206.614 258.007L203.096 268.753L214.402 268.804L214.439 260.57ZM223.696 232.298V224.064H217.727L215.87 229.736L223.696 232.298ZM251.608 232.298V240.533H257.543L259.42 234.902L251.608 232.298ZM253.187 227.563L260.998 230.167L264.611 219.329H253.187V227.563ZM225.274 227.563L217.409 225.125L214.101 235.797H225.274V227.563ZM229.723 213.212L229.706 204.978L223.651 204.99L221.858 210.774L229.723 213.212ZM264.883 213.14V204.906H264.874L264.866 204.906L264.883 213.14ZM270.91 213.929L267.702 221.513L268.165 221.709L268.648 221.847L270.91 213.929ZM271.627 220.531L279.455 223.085L279.507 222.926L279.552 222.766L271.627 220.531ZM263.878 244.281L268.999 250.73L270.938 249.19L271.706 246.836L263.878 244.281ZM258.999 248.156L253.878 241.708L247.291 246.939L252.661 253.413L258.999 248.156ZM269.116 260.354L269.236 268.588L286.434 268.337L275.454 255.098L269.116 260.354ZM293.298 261L293.262 269.234L299.285 269.261L301.134 263.528L293.298 261ZM276.938 260.928L269.103 258.396L265.639 269.113L276.902 269.162L276.938 260.928ZM287.629 227.85L295.464 230.382L298.925 219.676L287.673 219.616L287.629 227.85ZM274.211 227.778L266.302 225.488L263.272 235.954L274.167 236.012L274.211 227.778ZM277.871 217.015L285.235 220.697L285.319 220.53L285.395 220.359L277.871 217.015ZM281.53 213.786L283.581 221.761L283.93 221.671L284.271 221.551L281.53 213.786ZM285.548 213.284L285.515 205.05L285.426 205.05L285.337 205.052L285.548 213.284ZM320.78 213.14L328.67 215.494L331.843 204.861L320.746 204.906L320.78 213.14ZM316.546 224.908L309.331 220.94L309.331 220.94L316.546 224.908ZM310.878 227.85V236.084H310.95L311.022 236.083L310.878 227.85ZM303.989 227.85V219.616H297.993L296.153 225.322L303.989 227.85ZM53.5862 255.678L43.6124 242.475L30.4721 252.402L40.4459 265.605L53.5862 255.678ZM37.0422 239.204H32.3782V255.673H37.0422V239.204ZM24.5751 244.809L20.1264 258.012L35.7325 263.271L40.1813 250.068L24.5751 244.809ZM27.9665 252.407L12.0371 252.336L11.9629 268.804L27.8924 268.875L27.9665 252.407ZM19.8254 263.132L29.0817 234.861L13.4309 229.736L4.17463 258.007L19.8254 263.132ZM21.2563 240.533H49.1687V224.064H21.2563V240.533ZM56.9803 234.902L58.5589 230.167L42.9357 224.959L41.3571 229.695L56.9803 234.902ZM50.7473 219.329H22.8349V235.797H50.7473V219.329ZM30.6998 230.001L35.1485 215.65L19.4188 210.774L14.97 225.125L30.6998 230.001ZM27.3005 221.446L62.46 221.374L62.4264 204.906L27.2668 204.978L27.3005 221.446ZM62.4432 221.374C63.5934 221.374 64.4139 221.43 64.9618 221.502C65.5588 221.58 65.5735 221.644 65.2622 221.513L71.6789 206.346C68.8236 205.138 65.4025 204.906 62.4432 204.906V221.374ZM66.2084 221.847C64.777 221.438 63.3629 220.439 62.4883 218.939C61.7511 217.676 61.7433 216.65 61.7433 216.512H78.2115C78.2115 214.94 77.9526 212.766 76.7131 210.641C75.3361 208.281 73.1686 206.708 70.7327 206.012L66.2084 221.847ZM61.7433 216.512C61.7433 216.293 61.7596 216.183 61.7548 216.222C61.7512 216.251 61.7371 216.353 61.7004 216.54C61.6252 216.922 61.4887 217.496 61.2632 218.295L77.113 222.766C77.6398 220.899 78.2115 218.58 78.2115 216.512H61.7433ZM61.3601 217.977L53.6107 241.727L69.2666 246.836L77.0161 223.085L61.3601 217.977ZM56.318 237.833L51.4387 241.708L61.68 254.604L66.5593 250.73L56.318 237.833ZM50.2215 253.413L60.3389 265.611L73.0145 255.098L62.8972 242.899L50.2215 253.413ZM66.5565 252.121L46.8959 252.408L47.1363 268.875L66.7969 268.588L66.5565 252.121ZM110.474 252.408L68.2821 251.977L68.1141 268.445L110.306 268.875L110.474 252.408ZM76.0137 262.803L85.27 234.89L69.6388 229.707L60.3825 257.619L76.0137 262.803ZM77.4544 240.533H119.646V224.064H77.4544V240.533ZM111.824 229.726L108.308 240.417L123.952 245.562L127.468 234.871L111.824 229.726ZM116.13 234.756H89.9396V251.224H116.13V234.756ZM82.1625 240.285L80.4404 245.236L95.9947 250.646L97.7167 245.695L82.1625 240.285ZM88.1951 256.175L114.457 256.247L114.502 239.778L88.24 239.707L88.1951 256.175ZM106.646 245.476L102.556 258.104L118.223 263.178L122.313 250.55L106.646 245.476ZM121.037 219.4L78.9894 219.257L78.9332 235.725L120.981 235.868L121.037 219.4ZM86.8103 229.98L88.6759 224.096L72.9778 219.118L71.1122 225.002L86.8103 229.98ZM88.5869 224.361C89.0505 223.054 89.4366 222.132 89.7342 221.522C89.8805 221.222 89.9785 221.053 90.0222 220.983C90.0733 220.901 90.0115 221.016 89.8174 221.232L77.5767 210.215C75.5027 212.519 74.1045 215.929 73.0668 218.853L88.5869 224.361ZM89.6668 221.394C89.9845 221.06 89.9748 221.115 89.7033 221.313C89.569 221.411 89.1436 221.714 88.4784 221.996C87.8987 222.243 86.3952 222.797 84.3981 222.511L86.7272 206.209C84.5627 205.899 82.8559 206.492 82.037 206.84C81.1326 207.224 80.4321 207.691 79.9869 208.017C79.0936 208.669 78.3185 209.43 77.7273 210.052L89.6668 221.394ZM89.5219 221.58C89.0432 221.842 89.0635 221.704 90.2028 221.519C91.2036 221.356 92.6597 221.22 94.6568 221.155L94.1201 204.695C91.7162 204.773 89.5009 204.948 87.5597 205.264C85.7571 205.557 83.565 206.064 81.6034 207.14L89.5219 221.58ZM94.4072 221.159L125.836 221.087L125.798 204.619L94.3696 204.691L94.4072 221.159ZM117.986 210.306L113.179 225.088L128.84 230.181L133.647 215.4L117.986 210.306ZM130.517 252.622H114.516V269.091H130.517V252.622ZM122.343 263.413L131.6 235.07L115.945 229.957L106.689 258.3L122.343 263.413ZM123.772 240.748H152.689V224.28H123.772V240.748ZM160.512 235.082L162.091 230.275L146.445 225.137L144.866 229.945L160.512 235.082ZM154.288 219.472L125.587 219.4L125.546 235.868L154.247 235.94L154.288 219.472ZM133.393 230.192L138.2 215.483L122.547 210.367L117.739 225.076L133.393 230.192ZM130.374 221.159H164.313V204.691H130.374V221.159ZM164.149 221.157C165.261 221.179 166.088 221.217 166.669 221.261C166.958 221.283 167.141 221.303 167.24 221.316C167.36 221.332 167.27 221.326 167.052 221.272L171.046 205.295C169.225 204.84 166.702 204.737 164.478 204.692L164.149 221.157ZM167.242 221.317C167.913 221.468 167.996 221.544 167.757 221.429C167.623 221.365 167.224 221.164 166.732 220.757C166.243 220.352 165.454 219.57 164.874 218.313L179.826 211.412C178.455 208.44 175.935 207.086 174.862 206.573C173.523 205.932 172.099 205.53 170.857 205.25L167.242 221.317ZM165.623 219.611C165.317 219.177 165.12 218.722 165.012 218.312C164.909 217.917 164.908 217.641 164.912 217.547L181.367 218.205C181.472 215.575 180.895 212.69 179.077 210.114L165.623 219.611ZM164.905 217.876C164.905 217.601 164.928 217.477 164.915 217.581C164.904 217.663 164.876 217.836 164.818 218.122C164.701 218.699 164.502 219.527 164.194 220.647L180.075 225.007C180.698 222.737 181.373 220.026 181.373 217.876H164.905ZM164.31 220.264L160.22 232.749L175.87 237.875L179.96 225.39L164.31 220.264ZM160.127 233.05C159.882 233.909 159.64 234.554 159.426 235.023C159.211 235.496 159.053 235.725 159 235.795C158.951 235.859 159.041 235.723 159.317 235.536C159.612 235.335 160.012 235.152 160.474 235.059L163.704 251.208C171.238 249.701 174.479 242.763 175.962 237.574L160.127 233.05ZM159.633 235.274C159.874 235.199 160.029 235.172 160.06 235.166C160.097 235.16 160.068 235.167 159.956 235.176C159.723 235.194 159.307 235.208 158.665 235.19L158.194 251.651C160.01 251.703 162.394 251.665 164.545 250.993L159.633 235.274ZM158.43 235.186C158.041 235.186 157.391 235.158 156.416 235.074L154.99 251.48C156.215 251.587 157.383 251.654 158.43 251.654V235.186ZM155.733 235.043L136.36 234.971L136.299 251.439L155.672 251.511L155.733 235.043ZM128.508 240.63L122.696 258.281L138.338 263.432L144.15 245.78L128.508 240.63ZM209.7 252.48L180.137 252.049L179.898 268.516L209.46 268.946L209.7 252.48ZM180.34 252.055C179.399 252.018 178.701 251.939 178.207 251.852C177.7 251.762 177.533 251.684 177.593 251.71L171.105 266.846C173.788 267.996 176.835 268.398 179.695 268.51L180.34 252.055ZM178.188 251.994C177.829 251.804 177.626 251.648 177.522 251.555C177.424 251.467 177.395 251.419 177.391 251.412C177.388 251.406 177.366 251.373 177.341 251.275C177.314 251.171 177.273 250.956 177.273 250.596H160.805C160.805 253.832 161.549 257.073 163.342 260.004C165.129 262.927 167.666 265.064 170.51 266.562L178.188 251.994ZM177.273 250.596C177.273 250.774 177.259 250.788 177.289 250.568C177.316 250.368 177.368 250.058 177.459 249.62L161.337 246.261C161.065 247.568 160.805 249.114 160.805 250.596H177.273ZM177.459 249.62C177.606 248.912 178.11 247.075 179.131 243.769L163.396 238.91C162.408 242.11 161.668 244.674 161.337 246.261L177.459 249.62ZM179.153 243.697C180.36 239.657 183.362 230.294 188.203 215.483L172.55 210.367C167.728 225.118 164.654 234.699 163.374 238.982L179.153 243.697ZM180.376 221.159H198.602V204.691H180.376V221.159ZM198.527 221.159L214.313 221.302L214.463 204.835L198.677 204.691L198.527 221.159ZM214.159 221.299C215.27 221.33 216.006 221.479 216.46 221.625L221.5 205.947C219.275 205.232 216.949 204.902 214.616 204.837L214.159 221.299ZM216.539 221.65C216.312 221.579 215.921 221.411 215.503 221.062C215.078 220.708 214.793 220.308 214.629 219.98L229.359 212.615C227.684 209.266 224.843 206.984 221.421 205.922L216.539 221.65ZM214.182 218.901C214.105 218.67 214.054 218.48 214.023 218.357C213.991 218.229 213.969 218.126 213.955 218.056C213.929 217.922 213.916 217.835 213.914 217.821C213.91 217.795 213.92 217.856 213.937 218.047L230.338 216.556C230.314 216.3 230.216 214.926 229.805 213.693L214.182 218.901ZM213.944 218.121C213.971 218.388 214.011 218.939 214.057 219.866L230.505 219.043C230.455 218.056 230.399 217.172 230.331 216.482L213.944 218.121ZM214.047 219.454C214.047 219.202 214.067 219.074 214.06 219.123C214.056 219.158 214.039 219.272 213.997 219.482C213.91 219.908 213.754 220.544 213.502 221.426L229.337 225.95C229.893 224.004 230.515 221.564 230.515 219.454H214.047ZM213.454 221.602C212.984 223.395 212.248 225.86 211.218 229.046L226.886 234.116C227.96 230.796 228.803 227.999 229.385 225.774L213.454 221.602ZM211.221 229.035L201.75 258.167L217.411 263.259L226.882 234.127L211.221 229.035ZM185.16 256.39L197.43 256.318L197.334 239.85L185.064 239.922L185.16 256.39ZM205.177 250.737L212.137 230.287L196.547 224.981L189.587 245.431L205.177 250.737ZM204.342 219.4H191.857V235.869H204.342V219.4ZM184.026 225.089C182.167 230.81 179.924 237.635 177.296 245.566L192.928 250.746C195.563 242.795 197.816 235.939 199.688 230.179L184.026 225.089ZM256.026 255.678L246.052 242.475L232.911 252.402L242.885 265.605L256.026 255.678ZM239.482 239.204H234.818V255.673H239.482V239.204ZM227.014 244.809L222.566 258.012L238.172 263.271L242.621 250.068L227.014 244.809ZM230.406 252.407L214.476 252.336L214.402 268.804L230.332 268.875L230.406 252.407ZM222.265 263.132L231.521 234.861L215.87 229.736L206.614 258.007L222.265 263.132ZM223.696 240.533H251.608V224.064H223.696V240.533ZM259.42 234.902L260.998 230.167L245.375 224.959L243.796 229.695L259.42 234.902ZM253.187 219.329H225.274V235.797H253.187V219.329ZM233.139 230.001L237.588 215.65L221.858 210.774L217.409 225.125L233.139 230.001ZM229.74 221.446L264.899 221.374L264.866 204.906L229.706 204.978L229.74 221.446ZM264.883 221.374C266.033 221.374 266.853 221.43 267.401 221.502C267.998 221.58 268.013 221.644 267.702 221.513L274.118 206.346C271.263 205.138 267.842 204.906 264.883 204.906V221.374ZM268.648 221.847C267.216 221.438 265.802 220.439 264.928 218.939C264.19 217.676 264.183 216.65 264.183 216.512H280.651C280.651 214.94 280.392 212.766 279.153 210.641C277.776 208.281 275.608 206.708 273.172 206.012L268.648 221.847ZM264.183 216.512C264.183 216.293 264.199 216.183 264.194 216.222C264.191 216.251 264.177 216.353 264.14 216.54C264.065 216.922 263.928 217.496 263.703 218.295L279.552 222.766C280.079 220.899 280.651 218.58 280.651 216.512H264.183ZM263.8 217.977L256.05 241.727L271.706 246.836L279.455 223.085L263.8 217.977ZM258.757 237.833L253.878 241.708L264.119 254.604L268.999 250.73L258.757 237.833ZM252.661 253.413L262.778 265.611L275.454 255.098L265.337 242.899L252.661 253.413ZM268.996 252.121L249.335 252.408L249.576 268.875L269.236 268.588L268.996 252.121ZM293.334 252.766L276.974 252.694L276.902 269.162L293.262 269.234L293.334 252.766ZM284.773 263.461L295.464 230.382L279.794 225.317L269.103 258.396L284.773 263.461ZM287.673 219.616L274.255 219.544L274.167 236.012L287.585 236.084L287.673 219.616ZM282.121 230.067C283.732 224.501 284.765 221.639 285.235 220.697L270.506 213.332C269.254 215.835 267.847 220.149 266.302 225.488L282.121 230.067ZM285.395 220.359C285.373 220.409 285.215 220.731 284.807 221.09C284.382 221.466 283.921 221.673 283.581 221.761L279.479 205.811C275.128 206.93 272.028 209.887 270.346 213.671L285.395 220.359ZM284.271 221.551C284.158 221.59 284.073 221.615 284.022 221.629C283.97 221.643 283.941 221.649 283.939 221.65C283.937 221.65 283.955 221.646 283.995 221.64C284.034 221.633 284.091 221.625 284.166 221.616C284.487 221.575 285.003 221.534 285.759 221.515L285.337 205.052C283.373 205.103 280.913 205.272 278.79 206.021L284.271 221.551ZM285.582 221.518L320.813 221.374L320.746 204.906L285.515 205.05L285.582 221.518ZM312.889 210.786C311.087 216.826 309.895 219.914 309.331 220.94L323.761 228.876C325.302 226.074 326.933 221.317 328.67 215.494L312.889 210.786ZM309.331 220.94C309.431 220.758 309.591 220.529 309.825 220.298C310.061 220.066 310.314 219.891 310.547 219.77C311.002 219.534 311.171 219.609 310.733 219.617L311.022 236.083C315.843 235.998 320.917 234.047 323.761 228.876L309.331 220.94ZM310.878 219.616H303.989V236.084H310.878V219.616ZM296.153 225.322L285.461 258.473L301.134 263.528L311.826 230.377L296.153 225.322Z" fill="white" mask="url(#path-3-outside-1_478_2349)"/>
</svg>
